<?xml version="1.0" standalone="no"?><!DOCTYPE svg PUBLIC "-//W3C//DTD SVG 1.1//EN" "http://www.w3.org/Graphics/SVG/1.1/DTD/svg11.dtd"><svg t="1748160133627" class="icon" viewBox="0 0 1024 1024" version="1.1" xmlns="http://www.w3.org/2000/svg" p-id="1864" xmlns:xlink="http://www.w3.org/1999/xlink" width="200" height="200"><path d="M675.12 400.84l-378.8 378.8c-30.39 30.39-8.87 82.35 34.11 82.35 12.79 0 25.06-5.08 34.11-14.13l378.8-378.8c28.78-28.78 11.18-78.07-29.32-82.11a48.227 48.227 0 0 0-38.9 13.89z" p-id="1865"></path><path d="M743.33 779.66l-378.8-378.8c-30.39-30.39-82.35-8.87-82.35 34.11 0 12.79 5.08 25.06 14.13 34.11l378.8 378.8c28.78 28.78 78.07 11.18 82.11-29.32a48.227 48.227 0 0 0-13.89-38.9z" p-id="1866"></path><path d="M794.45 467.49h-548.9c-53.9 0-100.49-37.61-111.86-90.3l-13.08-60.63C105.24 245.29 159.55 178 232.47 178h575.05c72.91 0 127.23 67.28 111.86 138.56l-13.08 60.63c-11.36 52.69-57.96 90.3-111.86 90.3z" fill="#B3CE3E" p-id="1867"></path><path d="M293.8 333.26c29.88 9.69 60.01 18.66 90.57 25.94 31.11 7.42 62.68 13.06 94.53 16.04 29.07 2.72 58.38 3.07 87.45 0.23 28.19-2.75 56.16-8.14 83.07-17.04 26.77-8.85 52.62-20.96 76.01-36.75 2.82-1.9 5.59-3.86 8.34-5.86 3.79-2.77 6.05-7.94 3.23-12.31-2.42-3.76-8.25-6.2-12.31-3.23a283.144 283.144 0 0 1-34.8 21.67c-6.09 3.21-12.3 6.2-18.6 8.98-0.66 0.29-1.33 0.58-1.99 0.87-0.44 0.19-0.89 0.38-1.33 0.57-0.16 0.07-1.28 0.54-0.26 0.11s-0.11 0.04-0.26 0.11c-0.45 0.18-0.89 0.37-1.34 0.55-0.89 0.37-1.79 0.73-2.69 1.09-3.15 1.26-6.31 2.47-9.5 3.63-12.89 4.69-26.07 8.56-39.43 11.68-6.76 1.58-13.57 2.96-20.41 4.16-3.36 0.59-6.74 1.14-10.12 1.64-0.85 0.13-1.69 0.25-2.54 0.37-0.34 0.05-2.49 0.35-1.34 0.19s-1.33 0.17-1.71 0.22l-2.91 0.36c-28.36 3.41-57.01 3.74-85.48 1.68a550.676 550.676 0 0 1-28.66-2.85c-0.95-0.12-1.91-0.24-2.86-0.37-0.41-0.05-0.82-0.11-1.22-0.16 1.33 0.17 0.27 0.04-0.46-0.06-3.81-0.52-7.61-1.08-11.4-1.68-15.34-2.4-30.6-5.37-45.75-8.77-30.38-6.83-60.35-15.41-90.02-24.83-3.67-1.17-7.34-2.34-11-3.53-4.48-1.45-10.03 1.69-11.07 6.29-1.12 4.94 1.49 9.51 6.29 11.07z" p-id="1868"></path></svg>